<svg width="32" height="32" viewBox="0 0 32 32" xmlns="http://www.w3.org/2000/svg">
  <!-- White background -->
  <rect width="32" height="32" fill="white" rx="3"/>
  
  <!-- Stylish Devura D logo with curved design -->
  <path d="M6 4 L6 28 L14 28 C20.5 28 26 23 26 16 C26 9 20.5 4 14 4 L6 4 Z M10 8 L14 8 C18 8 22 11 22 16 C22 21 18 24 14 24 L10 24 L10 8 Z" fill="black"/>
  
  <!-- Inner curved detail for stylish effect -->
  <path d="M14 12 C16 12 18 13.5 18 16 C18 18.5 16 20 14 20 L10 20 L10 12 L14 12 Z" fill="white"/>
</svg>